# Blender 4.0.2
# www.blender.org
mtllib Map.mtl
o Wall3
v -15.000000 -0.400000 -15.000000
v -15.000000 2.700000 -15.000000
v -15.000000 -0.400000 -16.500000
v -15.000000 2.700000 -16.500000
v 15.000000 -0.400000 -15.000000
v 15.000000 2.700000 -15.000000
v 15.000000 -0.400000 -16.500000
v 15.000000 2.700000 -16.500000
vn -1.0000 -0.0000 -0.0000
vn -0.0000 -0.0000 -1.0000
vn 1.0000 -0.0000 -0.0000
vn -0.0000 -0.0000 1.0000
vn -0.0000 -1.0000 -0.0000
vn -0.0000 1.0000 -0.0000
vt 0.375000 0.000000
vt 0.625000 0.000000
vt 0.625000 0.250000
vt 0.375000 0.250000
vt 0.625000 0.500000
vt 0.375000 0.500000
vt 0.625000 0.750000
vt 0.375000 0.750000
vt 0.500000 0.000000
vt 0.500000 1.000000
vt 0.375000 1.000000
vt 0.125000 0.500000
vt 0.125000 0.750000
vt 0.000000 0.000000
vt 1.000000 0.000000
vt 1.000000 1.000000
vt 0.000000 1.000000
s 0
usemtl WallMat3
f 1/1/1 2/2/1 4/3/1 3/4/1
f 3/4/2 4/3/2 8/5/2 7/6/2
f 7/6/3 8/5/3 6/7/3 5/8/3
f 5/1/4 6/9/4 2/10/4 1/11/4
f 3/12/5 7/6/5 5/8/5 1/13/5
f 8/14/6 4/15/6 2/16/6 6/17/6
o Wall1
v -16.500000 -0.400000 15.000000
v -16.500000 2.700000 15.000000
v -16.500000 -0.400000 -15.000000
v -16.500000 2.700000 -15.000000
v -15.000000 -0.400000 15.000000
v -15.000000 2.700000 15.000000
v -15.000000 -0.400000 -15.000000
v -15.000000 2.700000 -15.000000
vn -1.0000 -0.0000 -0.0000
vn -0.0000 -0.0000 -1.0000
vn 1.0000 -0.0000 -0.0000
vn -0.0000 -0.0000 1.0000
vn -0.0000 -1.0000 -0.0000
vn -0.0000 1.0000 -0.0000
vt 0.375000 0.000000
vt 0.625000 0.000000
vt 0.625000 0.250000
vt 0.375000 0.250000
vt 0.625000 0.500000
vt 0.375000 0.500000
vt 0.499748 0.000000
vt 0.499748 1.000000
vt 0.375000 1.000000
vt 0.375000 0.750000
vt 0.625000 0.750000
vt 0.625000 1.000000
vt 0.125000 0.500000
vt 0.125000 0.750000
vt 0.000000 0.000000
vt 1.000000 0.000000
vt 1.000000 1.000000
vt 0.000000 1.000000
s 0
usemtl WallMat1
f 9/18/7 10/19/7 12/20/7 11/21/7
f 11/21/8 12/20/8 16/22/8 15/23/8
f 15/18/9 16/24/9 14/25/9 13/26/9
f 13/27/10 14/28/10 10/29/10 9/26/10
f 11/30/11 15/23/11 13/27/11 9/31/11
f 16/32/12 12/33/12 10/34/12 14/35/12
o Wall2
v 15.000000 -0.400000 15.000000
v 15.000000 2.700000 15.000000
v 15.000000 -0.400000 -15.000000
v 15.000000 2.700000 -15.000000
v 16.500000 -0.400000 15.000000
v 16.500000 2.700000 15.000000
v 16.500000 -0.400000 -15.000000
v 16.500000 2.700000 -15.000000
vn -1.0000 -0.0000 -0.0000
vn -0.0000 -0.0000 -1.0000
vn 1.0000 -0.0000 -0.0000
vn -0.0000 -0.0000 1.0000
vn -0.0000 -1.0000 -0.0000
vn -0.0000 1.0000 -0.0000
vt 0.375000 0.000000
vt 0.500276 0.000000
vt 0.500276 1.000000
vt 0.375000 1.000000
vt 0.375000 0.250000
vt 0.625000 0.250000
vt 0.625000 0.500000
vt 0.375000 0.500000
vt 0.625000 0.750000
vt 0.375000 0.750000
vt 0.625000 1.000000
vt 0.125000 0.500000
vt 0.125000 0.750000
vt 0.000000 0.000000
vt 1.000000 0.000000
vt 1.000000 1.000000
vt 0.000000 1.000000
s 0
usemtl WallMat2
f 17/36/13 18/37/13 20/38/13 19/39/13
f 19/40/14 20/41/14 24/42/14 23/43/14
f 23/43/15 24/42/15 22/44/15 21/45/15
f 21/45/16 22/44/16 18/46/16 17/39/16
f 19/47/17 23/43/17 21/45/17 17/48/17
f 24/49/18 20/50/18 18/51/18 22/52/18
o Floar
v -15.000000 -0.600000 15.000000
v -15.000000 -0.400000 15.000000
v -15.000000 -0.600000 -15.000000
v -15.000000 -0.400000 -15.000000
v 15.000000 -0.600000 15.000000
v 15.000000 -0.400000 15.000000
v 15.000000 -0.600000 -15.000000
v 15.000000 -0.400000 -15.000000
vn -1.0000 -0.0000 -0.0000
vn -0.0000 -0.0000 -1.0000
vn 1.0000 -0.0000 -0.0000
vn -0.0000 -0.0000 1.0000
vn -0.0000 -1.0000 -0.0000
vn -0.0000 1.0000 -0.0000
vt 0.375000 0.000000
vt 0.625000 0.000000
vt 0.625000 0.250000
vt 0.375000 0.250000
vt 0.625000 0.500000
vt 0.375000 0.500000
vt 0.625000 0.750000
vt 0.375000 0.750000
vt 0.625000 1.000000
vt 0.375000 1.000000
vt 0.125000 0.500000
vt 0.125000 0.750000
vt 0.000000 0.000000
vt 1.000000 0.000000
vt 1.000000 1.000000
vt 0.000000 1.000000
s 0
usemtl FloarMat
f 25/53/19 26/54/19 28/55/19 27/56/19
f 27/56/20 28/55/20 32/57/20 31/58/20
f 31/58/21 32/57/21 30/59/21 29/60/21
f 29/60/22 30/59/22 26/61/22 25/62/22
f 27/63/23 31/58/23 29/60/23 25/64/23
f 32/65/24 28/66/24 26/67/24 30/68/24
o Wall4
v -15.000000 -0.400000 16.500000
v -15.000000 2.700000 16.500000
v -15.000000 -0.400000 15.000000
v -15.000000 2.700000 15.000000
v 15.000000 -0.400000 16.500000
v 15.000000 2.700000 16.500000
v 15.000000 -0.400000 15.000000
v 15.000000 2.700000 15.000000
vn -1.0000 -0.0000 -0.0000
vn -0.0000 -0.0000 -1.0000
vn 1.0000 -0.0000 -0.0000
vn -0.0000 -0.0000 1.0000
vn -0.0000 -1.0000 -0.0000
vn -0.0000 1.0000 -0.0000
vt 0.375000 0.000000
vt 0.625000 0.000000
vt 0.625000 0.250000
vt 0.375000 0.250000
vt 0.500000 0.000000
vt 0.500000 1.000000
vt 0.375000 1.000000
vt 0.375000 0.500000
vt 0.625000 0.500000
vt 0.625000 0.750000
vt 0.375000 0.750000
vt 0.125000 0.500000
vt 0.125000 0.750000
vt 0.000000 0.000000
vt 1.000000 0.000000
vt 1.000000 1.000000
vt 0.000000 1.000000
s 0
usemtl WallMat4
f 33/69/25 34/70/25 36/71/25 35/72/25
f 35/69/26 36/73/26 40/74/26 39/75/26
f 39/76/27 40/77/27 38/78/27 37/79/27
f 37/69/28 38/73/28 34/74/28 33/75/28
f 35/80/29 39/76/29 37/79/29 33/81/29
f 40/82/30 36/83/30 34/84/30 38/85/30
